                      <svg
                        xmlns="http://www.w3.org/2000/svg"
                        width="36"
                        height="36"
                        viewBox="0 0 25 25"
                        fill="none">
                        <path
                          d="M16.3614 6.10675C17.227 5.95698 18.0927 5.80716 18.9871 5.65234C18.818 6.53549 18.6513 7.40566 18.4792 8.30438C18.3196 8.14503 18.1636 8.00555 18.0281 7.84823C17.9331 7.73814 17.8741 7.76074 17.7848 7.84889C17.2212 8.40508 16.6541 8.95777 16.0875 9.51104C15.0765 10.4985 14.0636 11.4843 13.0558 12.4752C12.9717 12.5579 12.9298 12.5446 12.8548 12.4726C12.4319 12.0668 12.0024 11.6678 11.5808 11.2606C11.4986 11.1814 11.4552 11.1753 11.3706 11.2607C10.4448 12.193 9.51335 13.1196 8.58754 14.0516C8.50313 14.137 8.45858 14.1513 8.36761 14.0575C8.09911 13.7804 7.82024 13.5133 7.54132 13.2465C7.47969 13.1875 7.47988 13.155 7.54089 13.0945C8.83966 11.8053 10.1375 10.5151 11.4309 9.22037C11.5227 9.12854 11.5632 9.18512 11.6202 9.23896C12.0389 9.63467 12.4591 10.029 12.8735 10.4292C12.9417 10.4953 12.9722 10.4901 13.0374 10.4271C14.191 9.31356 15.3478 8.20307 16.5038 7.09201C16.6049 6.9949 16.7019 6.89241 16.8107 6.80446C16.908 6.7257 16.8901 6.67332 16.8065 6.59896C16.6434 6.45357 16.4883 6.29927 16.33 6.1487C16.3404 6.13483 16.3511 6.12086 16.3614 6.10675Z"
                          fill="black"
                        />
                        <path
                          d="M10.5505 14.9219H7.31641V18.0682H10.5505V14.9219Z"
                          fill="black"
                        />
                        <path
                          d="M14.7372 13.4375H11.5029V18.067H14.7372V13.4375Z"
                          fill="black"
                        />
                        <path
                          d="M18.91 11.4219H15.6758V18.0716H18.91V11.4219Z"
                          fill="black"
                        />
                      </svg>