                      <svg
                        xmlns="http://www.w3.org/2000/svg"
                        width="36"
                        height="36"
                        viewBox="0 0 25 25"
                        fill="none">
                        <svg>
                          <path
                            d="M9.47336 1.70704C7.96063 1.70517 6.48144 2.13408 5.22354 2.93932L4.0076 1.77404C3.97388 1.74218 3.93109 1.72057 3.8846 1.71191C3.83811 1.70326 3.78999 1.70796 3.74628 1.72542C3.70257 1.74287 3.6652 1.77231 3.63888 1.81003C3.61255 1.84776 3.59844 1.89209 3.59831 1.93748V3.43125H2.03958C1.99223 3.43138 1.94596 3.44491 1.9066 3.47013C1.86723 3.49536 1.83652 3.53117 1.8183 3.57306C1.80009 3.61495 1.79519 3.66107 1.80421 3.70562C1.81324 3.75017 1.83579 3.79118 1.86905 3.82349L3.08498 4.98877C2.1379 6.35348 1.69363 7.98227 1.8227 9.61656C1.95178 11.2509 2.6468 12.797 3.79743 14.0096C4.94807 15.2221 6.48838 16.0316 8.17385 16.3095C9.85932 16.5874 11.5934 16.3178 13.1007 15.5435C14.608 14.7691 15.8023 13.5345 16.4938 12.0355C17.1854 10.5365 17.3347 8.85907 16.918 7.2695C16.5013 5.67993 15.5424 4.2693 14.1937 3.26155C12.8449 2.2538 11.1836 1.70668 9.47336 1.70704ZM5.51686 3.87089V4.94464L4.07752 3.56527V2.49151L5.51686 3.87089ZM7.78844 7.77202C7.44402 8.18561 7.2779 8.70986 7.32416 9.23715C7.37043 9.76443 7.62557 10.2547 8.03722 10.6074C8.44886 10.9601 8.98576 11.1483 9.5377 11.1335C10.0896 11.1187 10.6147 10.902 11.0051 10.5278C11.3956 10.1537 11.6217 9.65048 11.6372 9.12154C11.6526 8.5926 11.4562 8.07807 11.0882 7.68358C10.7202 7.28908 10.2085 7.04457 9.65834 7.00023C9.10813 6.95589 8.56108 7.1151 8.12951 7.44516L6.67482 6.05108C7.49376 5.35133 8.56511 4.98512 9.66128 5.03025C10.7575 5.07538 11.7921 5.52828 12.5454 6.29275C13.2987 7.05723 13.7113 8.07303 13.6956 9.12439C13.6799 10.1758 13.2371 11.1798 12.4613 11.9233C11.6855 12.6668 10.6378 13.0912 9.54068 13.1062C8.44361 13.1213 7.38364 12.7258 6.58592 12.0039C5.78821 11.282 5.31562 10.2905 5.26853 9.23997C5.22144 8.18947 5.60357 7.16276 6.33374 6.37794L7.78844 7.77202ZM9.0129 8.94547C8.98438 9.04493 8.991 9.15064 9.03171 9.24613C9.07243 9.34161 9.14496 9.42151 9.238 9.47337C9.33104 9.52523 9.43937 9.54613 9.5461 9.53283C9.65284 9.51953 9.75199 9.47277 9.82809 9.39983C9.9042 9.32689 9.953 9.23188 9.96688 9.12959C9.98076 9.0273 9.95894 8.92349 9.90483 8.83432C9.85071 8.74516 9.76734 8.67565 9.66771 8.63663C9.56807 8.59761 9.45777 8.59128 9.35398 8.61861L8.474 7.77529C8.8152 7.53094 9.2403 7.4195 9.66377 7.46339C10.0872 7.50728 10.4777 7.70324 10.7564 8.01184C11.0352 8.32044 11.1817 8.71878 11.1664 9.12671C11.1512 9.53464 10.9752 9.92188 10.674 10.2105C10.3728 10.4992 9.96877 10.6678 9.5431 10.6824C9.11743 10.6971 8.70177 10.5567 8.37975 10.2895C8.05773 10.0223 7.85325 9.64818 7.80746 9.24235C7.76166 8.83653 7.87795 8.42914 8.13292 8.10216L9.0129 8.94547ZM3.73815 3.8905L5.17749 5.26987H4.05705L2.61771 3.8905H3.73815ZM9.47336 15.9567C8.1796 15.9581 6.90944 15.6248 5.79687 14.992C4.68429 14.3593 3.77054 13.4505 3.152 12.3615C2.53346 11.2725 2.23307 10.0438 2.2825 8.80482C2.33194 7.56588 2.72937 6.36269 3.43288 5.32217L3.7876 5.66211C3.81003 5.68348 3.83664 5.70039 3.86591 5.71189C3.89517 5.72339 3.92651 5.72924 3.95814 5.72912H5.66353L6.0046 6.05598C5.18548 6.92621 4.75345 8.06865 4.80063 9.23974C4.84781 10.4108 5.37045 11.518 6.25715 12.3251C7.14384 13.1322 8.32444 13.5755 9.54727 13.5604C10.7701 13.5453 11.9384 13.0731 12.8031 12.2444C13.6679 11.4157 14.1606 10.296 14.1764 9.12417C14.1921 7.9523 13.7296 6.82089 12.8873 5.97114C12.0451 5.12139 10.8899 4.62052 9.66787 4.57531C8.44585 4.5301 7.25374 4.94412 6.34568 5.72912L6.0046 5.40225V3.76792C6.00474 3.73761 5.99863 3.70758 5.98663 3.67953C5.97463 3.65149 5.95698 3.62599 5.93468 3.60449L5.57996 3.26455C6.52015 2.68527 7.58827 2.32394 8.69958 2.20921C9.81089 2.09448 10.9348 2.22951 11.9822 2.6036C13.0295 2.97768 13.9715 3.58052 14.7334 4.36429C15.4953 5.14807 16.0561 6.0912 16.3713 7.11888C16.6866 8.14656 16.7476 9.2305 16.5495 10.2847C16.3514 11.3389 15.8998 12.3344 15.2303 13.1922C14.5608 14.0499 13.6919 14.7464 12.6926 15.2263C11.6933 15.7061 10.5911 15.9562 9.47336 15.9567Z"
                            fill="black"
                          />
                        </svg>
                        <defs>
                          <clipPath id="clip0_324_18240">
                            <rect
                              width="17.0538"
                              height="16.3433"
                              fill="white"
                              transform="translate(0.945312 0.890625)"
                            />
                          </clipPath>
                        </defs>
                      </svg>