                  <svg
                    xmlns="http://www.w3.org/2000/svg"
                    width="28"
                    height="28"
                    viewBox="0 0 48 48"
                    fill="">
                    <path
                      d="M31.5215 6.71484V14.3982M15.9785 6.71484V14.3982M8.20703 22.0815H39.2929M21.8071 29.7648H23.75V35.5273M8.20703 14.3982C8.20703 13.3793 8.61642 12.4022 9.34514 11.6817C10.0739 10.9613 11.0622 10.5565 12.0928 10.5565H35.4072C36.4378 10.5565 37.4261 10.9613 38.1548 11.6817C38.8836 12.4022 39.2929 13.3793 39.2929 14.3982V37.4482C39.2929 38.4671 38.8836 39.4442 38.1548 40.1646C37.4261 40.8851 36.4378 41.2898 35.4072 41.2898H12.0928C11.0622 41.2898 10.0739 40.8851 9.34514 40.1646C8.61642 39.4442 8.20703 38.4671 8.20703 37.4482V14.3982Z"
                      stroke="white"
                      strokeWidth="4.23675"
                      strokeLinecap="round"
                      strokeLinejoin="round"
                    />
                  </svg>