                  <svg
                    xmlns="http://www.w3.org/2000/svg"
                    width="20"
                    height="23"
                    viewBox="0 0 23 23"
                    fill="none">
                    <svg>
                      <path
                        d="M21.5724 13.1871C21.2171 12.6965 21.0257 12.1062 21.0257 11.5005C21.0257 10.8947 21.2171 10.3044 21.5724 9.81379L22.3008 8.80754C22.3898 8.68466 22.4484 8.5424 22.4718 8.39245C22.4951 8.2425 22.4825 8.08916 22.4349 7.94504C22.3869 7.80243 22.3066 7.67286 22.2002 7.56646C22.0938 7.46006 21.9642 7.37971 21.8216 7.3317L20.6429 6.94837C20.0654 6.76211 19.5621 6.39718 19.2056 5.90627C18.849 5.41536 18.6576 4.82385 18.6591 4.21712V2.97129C18.659 2.82003 18.6231 2.67094 18.5543 2.53623C18.4855 2.40151 18.3858 2.28499 18.2634 2.19619C18.1409 2.10739 17.9992 2.04883 17.8498 2.02531C17.7004 2.0018 17.5475 2.01398 17.4037 2.06087L16.2154 2.4442C15.6385 2.63089 15.0173 2.63039 14.4407 2.44277C13.8641 2.25516 13.3615 1.89004 13.0049 1.39962L12.2766 0.39337C12.1836 0.276749 12.0655 0.182581 11.9312 0.11786C11.7968 0.0531398 11.6495 0.0195313 11.5004 0.0195312C11.3512 0.0195312 11.204 0.0531398 11.0696 0.11786C10.9352 0.182581 10.8171 0.276749 10.7241 0.39337L9.99578 1.39962C9.63918 1.89004 9.13666 2.25516 8.56005 2.44277C7.98344 2.63039 7.36228 2.63089 6.78537 2.4442L5.59703 2.06087C5.45322 2.01398 5.30036 2.0018 5.15094 2.02531C5.00152 2.04883 4.85979 2.10739 4.73734 2.19619C4.61489 2.28499 4.5152 2.40151 4.44642 2.53623C4.37764 2.67094 4.34173 2.82003 4.34161 2.97129V4.21712C4.34309 4.82385 4.15173 5.41536 3.79518 5.90627C3.43862 6.39718 2.9353 6.76211 2.35786 6.94837L1.17911 7.3317C1.03651 7.37971 0.906936 7.46006 0.800536 7.56646C0.694136 7.67286 0.61379 7.80243 0.565781 7.94504C0.518259 8.08916 0.505641 8.2425 0.528967 8.39245C0.552292 8.5424 0.610894 8.68466 0.699948 8.80754L1.42828 9.81379C1.78367 10.3044 1.97502 10.8947 1.97502 11.5005C1.97502 12.1062 1.78367 12.6965 1.42828 13.1871L0.699948 14.1934C0.610894 14.3162 0.552292 14.4585 0.528967 14.6085C0.505641 14.7584 0.518259 14.9118 0.565781 15.0559C0.61379 15.1985 0.694136 15.328 0.800536 15.4344C0.906936 15.5408 1.03651 15.6212 1.17911 15.6692L2.35786 16.0525C2.9353 16.2388 3.43862 16.6037 3.79518 17.0946C4.15173 17.5855 4.34309 18.1771 4.34161 18.7838V20.0296C4.34173 20.1809 4.37764 20.33 4.44642 20.4647C4.5152 20.5994 4.61489 20.7159 4.73734 20.8047C4.85979 20.8935 5.00152 20.9521 5.15094 20.9756C5.30036 20.9991 5.45322 20.9869 5.59703 20.94L6.77578 20.5567C7.35392 20.3669 7.97744 20.3658 8.55624 20.5535C9.13505 20.7413 9.63918 21.1082 9.99578 21.6013L10.7241 22.6075C10.8136 22.7294 10.9305 22.8284 11.0653 22.8967C11.2002 22.965 11.3492 23.0005 11.5004 23.0005C11.6515 23.0005 11.8005 22.965 11.9354 22.8967C12.0702 22.8284 12.1871 22.7294 12.2766 22.6075L13.0049 21.6013C13.3621 21.1089 13.8663 20.7425 14.4449 20.5548C15.0235 20.3671 15.6467 20.3678 16.2249 20.5567L17.4037 20.94C17.5475 20.9869 17.7004 20.9991 17.8498 20.9756C17.9992 20.9521 18.1409 20.8935 18.2634 20.8047C18.3858 20.7159 18.4855 20.5994 18.5543 20.4647C18.6231 20.33 18.659 20.1809 18.6591 20.0296V18.7838C18.6576 18.1771 18.849 17.5855 19.2056 17.0946C19.5621 16.6037 20.0654 16.2388 20.6429 16.0525L21.8216 15.6692C21.9642 15.6212 22.0938 15.5408 22.2002 15.4344C22.3066 15.328 22.3869 15.1985 22.4349 15.0559C22.4825 14.9118 22.4951 14.7584 22.4718 14.6085C22.4484 14.4585 22.3898 14.3162 22.3008 14.1934L21.5724 13.1871ZM16.0141 10.2613L11.2224 15.053C11.0427 15.2327 10.799 15.3336 10.5449 15.3336C10.2908 15.3336 10.0471 15.2327 9.86736 15.053L6.99236 12.178C6.90083 12.0896 6.82783 11.9838 6.7776 11.8669C6.72738 11.75 6.70094 11.6243 6.69983 11.497C6.69873 11.3698 6.72298 11.2436 6.77116 11.1258C6.81935 11.008 6.89051 10.901 6.98049 10.811C7.07047 10.7211 7.17747 10.6499 7.29524 10.6017C7.41302 10.5535 7.53921 10.5293 7.66646 10.5304C7.7937 10.5315 7.91946 10.5579 8.03638 10.6081C8.1533 10.6584 8.25904 10.7314 8.34745 10.8229L10.542 13.0204L14.6562 8.90625C14.8369 8.73168 15.079 8.63508 15.3302 8.63727C15.5815 8.63945 15.8219 8.74024 15.9996 8.91792C16.1772 9.0956 16.278 9.33596 16.2802 9.58724C16.2824 9.83851 16.1858 10.0806 16.0112 10.2613H16.0141Z"
                        fill="#0023FF"
                      />
                    </svg>
                    <defs>
                      <clipPath id="clip0_404_4290">
                        <rect width="23" height="23" fill="white" />
                      </clipPath>
                    </defs>
                  </svg>